<mxfile host="app.diagrams.net" agent="Mozilla/5.0 (Windows NT 10.0; Win64; x64) AppleWebKit/537.36 (KHTML, like Gecko) Chrome/133.0.0.0 Safari/537.36" version="26.0.15">
  <diagram name="Page-1" id="iC2nHx67M0W51VAWV2Hs">
    <mxGraphModel dx="1075" dy="435" grid="1" gridSize="10" guides="1" tooltips="1" connect="1" arrows="1" fold="1" page="1" pageScale="1" pageWidth="850" pageHeight="1100" math="0" shadow="0">
      <root>
        <mxCell id="0" />
        <mxCell id="1" parent="0" />
        <mxCell id="sKo5t8f6W25Y290dJ45e-39" value="" style="edgeStyle=orthogonalEdgeStyle;rounded=0;orthogonalLoop=1;jettySize=auto;html=1;" edge="1" parent="1" source="sKo5t8f6W25Y290dJ45e-30" target="sKo5t8f6W25Y290dJ45e-32">
          <mxGeometry relative="1" as="geometry" />
        </mxCell>
        <mxCell id="sKo5t8f6W25Y290dJ45e-30" value="Scheduler" style="rounded=1;whiteSpace=wrap;html=1;" vertex="1" parent="1">
          <mxGeometry x="442.5" y="70" width="105" height="40" as="geometry" />
        </mxCell>
        <mxCell id="sKo5t8f6W25Y290dJ45e-41" style="edgeStyle=orthogonalEdgeStyle;rounded=0;orthogonalLoop=1;jettySize=auto;html=1;" edge="1" parent="1" source="sKo5t8f6W25Y290dJ45e-32" target="sKo5t8f6W25Y290dJ45e-34">
          <mxGeometry relative="1" as="geometry">
            <Array as="points">
              <mxPoint x="495" y="190" />
              <mxPoint x="680" y="190" />
            </Array>
          </mxGeometry>
        </mxCell>
        <UserObject label="&lt;span data-lucid-type=&quot;application/vnd.lucid.text&quot; data-lucid-content=&quot;{&amp;quot;t&amp;quot;:&amp;quot;Check DRAW_RSLT_CFG system parameter&amp;quot;,&amp;quot;m&amp;quot;:[{&amp;quot;s&amp;quot;:0,&amp;quot;n&amp;quot;:&amp;quot;f&amp;quot;,&amp;quot;v&amp;quot;:&amp;quot;Liberation Serif&amp;quot;,&amp;quot;e&amp;quot;:36},{&amp;quot;s&amp;quot;:0,&amp;quot;n&amp;quot;:&amp;quot;fsp&amp;quot;,&amp;quot;v&amp;quot;:&amp;quot;ss_presetShapeStyle1_textStyle&amp;quot;,&amp;quot;e&amp;quot;:36},{&amp;quot;s&amp;quot;:0,&amp;quot;n&amp;quot;:&amp;quot;fsp2&amp;quot;,&amp;quot;v&amp;quot;:&amp;quot;ss_presetShapeStyle1_textStyle&amp;quot;,&amp;quot;e&amp;quot;:36},{&amp;quot;s&amp;quot;:0,&amp;quot;n&amp;quot;:&amp;quot;s&amp;quot;,&amp;quot;v&amp;quot;:17.77777777777778,&amp;quot;e&amp;quot;:36}]}&quot;&gt;&lt;span style=&quot;color: rgb(0, 0, 0);&quot;&gt;&lt;font style=&quot;font-size: 10px;&quot;&gt;Check DRAW_RSLT_CFG system parameter&lt;/font&gt;&lt;/span&gt;&lt;/span&gt;" link="&lt;span data-lucid-type=&quot;application/vnd.lucid.text&quot; data-lucid-content=&quot;{&amp;quot;t&amp;quot;:&amp;quot;Check DRAW_RSLT_CFG system parameter&amp;quot;,&amp;quot;m&amp;quot;:[{&amp;quot;s&amp;quot;:0,&amp;quot;n&amp;quot;:&amp;quot;f&amp;quot;,&amp;quot;v&amp;quot;:&amp;quot;Liberation Serif&amp;quot;,&amp;quot;e&amp;quot;:36},{&amp;quot;s&amp;quot;:0,&amp;quot;n&amp;quot;:&amp;quot;fsp&amp;quot;,&amp;quot;v&amp;quot;:&amp;quot;ss_presetShapeStyle1_textStyle&amp;quot;,&amp;quot;e&amp;quot;:36},{&amp;quot;s&amp;quot;:0,&amp;quot;n&amp;quot;:&amp;quot;fsp2&amp;quot;,&amp;quot;v&amp;quot;:&amp;quot;ss_presetShapeStyle1_textStyle&amp;quot;,&amp;quot;e&amp;quot;:36},{&amp;quot;s&amp;quot;:0,&amp;quot;n&amp;quot;:&amp;quot;s&amp;quot;,&amp;quot;v&amp;quot;:17.77777777777778,&amp;quot;e&amp;quot;:36}]}&quot;&gt;&lt;span style=&quot;color:#000000;font-size:13.333333333333336px;&quot;&gt;Check DRAW_RSLT_CFG system parameter&lt;/span&gt;&lt;/span&gt;" id="sKo5t8f6W25Y290dJ45e-32">
          <mxCell style="text;whiteSpace=wrap;html=1;" vertex="1" parent="1">
            <mxGeometry x="390" y="140" width="210" height="30" as="geometry" />
          </mxCell>
        </UserObject>
        <mxCell id="sKo5t8f6W25Y290dJ45e-42" value="" style="edgeStyle=orthogonalEdgeStyle;rounded=0;orthogonalLoop=1;jettySize=auto;html=1;entryX=0.5;entryY=0;entryDx=0;entryDy=0;exitX=0.445;exitY=1.079;exitDx=0;exitDy=0;exitPerimeter=0;" edge="1" parent="1" source="sKo5t8f6W25Y290dJ45e-33" target="sKo5t8f6W25Y290dJ45e-38">
          <mxGeometry relative="1" as="geometry">
            <mxPoint x="340" y="241" as="sourcePoint" />
            <Array as="points">
              <mxPoint x="342" y="240" />
              <mxPoint x="343" y="240" />
            </Array>
          </mxGeometry>
        </mxCell>
        <UserObject label="&lt;span data-lucid-type=&quot;application/vnd.lucid.text&quot; data-lucid-content=&quot;{&amp;quot;t&amp;quot;:&amp;quot;ALL / EXL_DRAW_RSLT_PULL&amp;quot;,&amp;quot;m&amp;quot;:[{&amp;quot;s&amp;quot;:0,&amp;quot;n&amp;quot;:&amp;quot;f&amp;quot;,&amp;quot;v&amp;quot;:&amp;quot;Liberation Serif&amp;quot;,&amp;quot;e&amp;quot;:24},{&amp;quot;s&amp;quot;:0,&amp;quot;n&amp;quot;:&amp;quot;s&amp;quot;,&amp;quot;v&amp;quot;:17.77777777777778,&amp;quot;e&amp;quot;:24},{&amp;quot;s&amp;quot;:0,&amp;quot;n&amp;quot;:&amp;quot;fsp&amp;quot;,&amp;quot;v&amp;quot;:&amp;quot;ss_presetShapeStyle1_textStyle&amp;quot;,&amp;quot;e&amp;quot;:24},{&amp;quot;s&amp;quot;:0,&amp;quot;n&amp;quot;:&amp;quot;fsp2&amp;quot;,&amp;quot;v&amp;quot;:&amp;quot;ss_presetShapeStyle1_textStyle&amp;quot;,&amp;quot;e&amp;quot;:24}]}&quot;&gt;&lt;span style=&quot;color: rgb(0, 0, 0);&quot;&gt;&lt;font style=&quot;font-size: 10px;&quot;&gt;ALL / EXL_DRAW_RSLT_PULL&lt;/font&gt;&lt;/span&gt;&lt;/span&gt;" link="&lt;span data-lucid-type=&quot;application/vnd.lucid.text&quot; data-lucid-content=&quot;{&amp;quot;t&amp;quot;:&amp;quot;ALL / EXL_DRAW_RSLT_PULL&amp;quot;,&amp;quot;m&amp;quot;:[{&amp;quot;s&amp;quot;:0,&amp;quot;n&amp;quot;:&amp;quot;f&amp;quot;,&amp;quot;v&amp;quot;:&amp;quot;Liberation Serif&amp;quot;,&amp;quot;e&amp;quot;:24},{&amp;quot;s&amp;quot;:0,&amp;quot;n&amp;quot;:&amp;quot;s&amp;quot;,&amp;quot;v&amp;quot;:17.77777777777778,&amp;quot;e&amp;quot;:24},{&amp;quot;s&amp;quot;:0,&amp;quot;n&amp;quot;:&amp;quot;fsp&amp;quot;,&amp;quot;v&amp;quot;:&amp;quot;ss_presetShapeStyle1_textStyle&amp;quot;,&amp;quot;e&amp;quot;:24},{&amp;quot;s&amp;quot;:0,&amp;quot;n&amp;quot;:&amp;quot;fsp2&amp;quot;,&amp;quot;v&amp;quot;:&amp;quot;ss_presetShapeStyle1_textStyle&amp;quot;,&amp;quot;e&amp;quot;:24}]}&quot;&gt;&lt;span style=&quot;color:#000000;font-size:13.333333333333336px;&quot;&gt;ALL / EXL_DRAW_RSLT_PULL&lt;/span&gt;&lt;/span&gt;" id="sKo5t8f6W25Y290dJ45e-33">
          <mxCell style="text;whiteSpace=wrap;html=1;" vertex="1" parent="1">
            <mxGeometry x="275" y="210" width="150" height="30" as="geometry" />
          </mxCell>
        </UserObject>
        <UserObject label="&lt;span data-lucid-type=&quot;application/vnd.lucid.text&quot; data-lucid-content=&quot;{&amp;quot;t&amp;quot;:&amp;quot;MNL_DRAW_RSLT_INPUT&amp;quot;,&amp;quot;m&amp;quot;:[{&amp;quot;s&amp;quot;:0,&amp;quot;n&amp;quot;:&amp;quot;f&amp;quot;,&amp;quot;v&amp;quot;:&amp;quot;Liberation Serif&amp;quot;,&amp;quot;e&amp;quot;:19},{&amp;quot;s&amp;quot;:0,&amp;quot;n&amp;quot;:&amp;quot;s&amp;quot;,&amp;quot;v&amp;quot;:17.77777777777778,&amp;quot;e&amp;quot;:19},{&amp;quot;s&amp;quot;:0,&amp;quot;n&amp;quot;:&amp;quot;fsp&amp;quot;,&amp;quot;v&amp;quot;:&amp;quot;ss_presetShapeStyle1_textStyle&amp;quot;,&amp;quot;e&amp;quot;:19},{&amp;quot;s&amp;quot;:0,&amp;quot;n&amp;quot;:&amp;quot;fsp2&amp;quot;,&amp;quot;v&amp;quot;:&amp;quot;ss_presetShapeStyle1_textStyle&amp;quot;,&amp;quot;e&amp;quot;:19}]}&quot;&gt;&lt;span style=&quot;color: rgb(0, 0, 0);&quot;&gt;&lt;font style=&quot;font-size: 10px;&quot;&gt;MNL_DRAW_RSLT_INPUT&lt;/font&gt;&lt;/span&gt;&lt;/span&gt;" link="&lt;span data-lucid-type=&quot;application/vnd.lucid.text&quot; data-lucid-content=&quot;{&amp;quot;t&amp;quot;:&amp;quot;MNL_DRAW_RSLT_INPUT&amp;quot;,&amp;quot;m&amp;quot;:[{&amp;quot;s&amp;quot;:0,&amp;quot;n&amp;quot;:&amp;quot;f&amp;quot;,&amp;quot;v&amp;quot;:&amp;quot;Liberation Serif&amp;quot;,&amp;quot;e&amp;quot;:19},{&amp;quot;s&amp;quot;:0,&amp;quot;n&amp;quot;:&amp;quot;s&amp;quot;,&amp;quot;v&amp;quot;:17.77777777777778,&amp;quot;e&amp;quot;:19},{&amp;quot;s&amp;quot;:0,&amp;quot;n&amp;quot;:&amp;quot;fsp&amp;quot;,&amp;quot;v&amp;quot;:&amp;quot;ss_presetShapeStyle1_textStyle&amp;quot;,&amp;quot;e&amp;quot;:19},{&amp;quot;s&amp;quot;:0,&amp;quot;n&amp;quot;:&amp;quot;fsp2&amp;quot;,&amp;quot;v&amp;quot;:&amp;quot;ss_presetShapeStyle1_textStyle&amp;quot;,&amp;quot;e&amp;quot;:19}]}&quot;&gt;&lt;span style=&quot;color:#000000;font-size:13.333333333333336px;&quot;&gt;MNL_DRAW_RSLT_INPUT&lt;/span&gt;&lt;/span&gt;" id="sKo5t8f6W25Y290dJ45e-34">
          <mxCell style="text;whiteSpace=wrap;html=1;" vertex="1" parent="1">
            <mxGeometry x="610" y="210" width="140" height="30" as="geometry" />
          </mxCell>
        </UserObject>
        <UserObject label="&lt;span style=&quot;color: rgb(0, 0, 0); font-family: Helvetica; font-size: 10px; font-style: normal; font-variant-ligatures: normal; font-variant-caps: normal; font-weight: 400; letter-spacing: normal; orphans: 2; text-align: left; text-indent: 0px; text-transform: none; widows: 2; word-spacing: 0px; -webkit-text-stroke-width: 0px; white-space: normal; background-color: rgb(251, 251, 251); text-decoration-thickness: initial; text-decoration-style: initial; text-decoration-color: initial; float: none; display: inline !important;&quot;&gt;ALL&amp;nbsp;&lt;/span&gt;&lt;div&gt;&lt;br/&gt;&lt;/div&gt;" link="&lt;span data-lucid-type=&quot;application/vnd.lucid.text&quot; data-lucid-content=&quot;{&amp;quot;t&amp;quot;:&amp;quot;Pull draw result concurrently per site\n&amp;quot;,&amp;quot;m&amp;quot;:[{&amp;quot;s&amp;quot;:0,&amp;quot;n&amp;quot;:&amp;quot;c&amp;quot;,&amp;quot;v&amp;quot;:&amp;quot;#000000ff&amp;quot;,&amp;quot;e&amp;quot;:39},{&amp;quot;s&amp;quot;:0,&amp;quot;n&amp;quot;:&amp;quot;f&amp;quot;,&amp;quot;v&amp;quot;:&amp;quot;Liberation Serif&amp;quot;,&amp;quot;e&amp;quot;:39},{&amp;quot;s&amp;quot;:0,&amp;quot;n&amp;quot;:&amp;quot;fsp&amp;quot;,&amp;quot;v&amp;quot;:&amp;quot;ss_presetShapeStyle1_textStyle&amp;quot;,&amp;quot;e&amp;quot;:39},{&amp;quot;s&amp;quot;:0,&amp;quot;n&amp;quot;:&amp;quot;s&amp;quot;,&amp;quot;v&amp;quot;:22.22222222222222,&amp;quot;e&amp;quot;:39}]}&quot;&gt;&lt;span style=&quot;color:#000000;font-size:16.666666666666664px;&quot;&gt;Pull draw result concurrently per site&lt;br&gt;&lt;/span&gt;&lt;/span&gt;" id="sKo5t8f6W25Y290dJ45e-35">
          <mxCell style="text;whiteSpace=wrap;html=1;" vertex="1" parent="1">
            <mxGeometry x="442.5" y="340" width="30" height="30" as="geometry" />
          </mxCell>
        </UserObject>
        <mxCell id="sKo5t8f6W25Y290dJ45e-37" value="END" style="rounded=1;whiteSpace=wrap;html=1;" vertex="1" parent="1">
          <mxGeometry x="627.5" y="270" width="105" height="40" as="geometry" />
        </mxCell>
        <mxCell id="sKo5t8f6W25Y290dJ45e-38" value="Pull draw result concurrently per site" style="rounded=1;whiteSpace=wrap;html=1;" vertex="1" parent="1">
          <mxGeometry x="275" y="270" width="135" height="40" as="geometry" />
        </mxCell>
        <mxCell id="sKo5t8f6W25Y290dJ45e-40" style="edgeStyle=orthogonalEdgeStyle;rounded=0;orthogonalLoop=1;jettySize=auto;html=1;" edge="1" parent="1" source="sKo5t8f6W25Y290dJ45e-32">
          <mxGeometry relative="1" as="geometry">
            <mxPoint x="343" y="210" as="targetPoint" />
            <Array as="points">
              <mxPoint x="495" y="190" />
              <mxPoint x="343" y="190" />
            </Array>
          </mxGeometry>
        </mxCell>
        <mxCell id="sKo5t8f6W25Y290dJ45e-46" value="&lt;span style=&quot;color: rgb(0, 0, 0); font-family: Helvetica; font-size: 10px; font-style: normal; font-variant-ligatures: normal; font-variant-caps: normal; font-weight: 400; letter-spacing: normal; orphans: 2; text-align: left; text-indent: 0px; text-transform: none; widows: 2; word-spacing: 0px; -webkit-text-stroke-width: 0px; white-space: normal; background-color: rgb(251, 251, 251); text-decoration-thickness: initial; text-decoration-style: initial; text-decoration-color: initial; float: none; display: inline !important;&quot;&gt;EXL_DRAW_RSLT_PULL&lt;/span&gt;" style="text;whiteSpace=wrap;html=1;" vertex="1" parent="1">
          <mxGeometry x="190" y="340" width="130" height="30" as="geometry" />
        </mxCell>
        <mxCell id="sKo5t8f6W25Y290dJ45e-47" value="Check if draw result entry meet" style="rounded=1;whiteSpace=wrap;html=1;" vertex="1" parent="1">
          <mxGeometry x="380" y="410" width="120" height="40" as="geometry" />
        </mxCell>
        <mxCell id="sKo5t8f6W25Y290dJ45e-48" value="&lt;span style=&quot;color: rgb(0, 0, 0); font-family: Helvetica; font-size: 10px; font-style: normal; font-variant-ligatures: normal; font-variant-caps: normal; font-weight: 400; letter-spacing: normal; orphans: 2; text-align: left; text-indent: 0px; text-transform: none; widows: 2; word-spacing: 0px; -webkit-text-stroke-width: 0px; white-space: normal; background-color: rgb(251, 251, 251); text-decoration-thickness: initial; text-decoration-style: initial; text-decoration-color: initial; float: none; display: inline !important;&quot;&gt;If meet&lt;/span&gt;" style="text;whiteSpace=wrap;html=1;" vertex="1" parent="1">
          <mxGeometry x="375" y="490" width="50" height="30" as="geometry" />
        </mxCell>
        <mxCell id="sKo5t8f6W25Y290dJ45e-49" value="&lt;span style=&quot;color: rgb(0, 0, 0); font-family: Helvetica; font-size: 10px; font-style: normal; font-variant-ligatures: normal; font-variant-caps: normal; font-weight: 400; letter-spacing: normal; orphans: 2; text-align: left; text-indent: 0px; text-transform: none; widows: 2; word-spacing: 0px; -webkit-text-stroke-width: 0px; white-space: normal; background-color: rgb(251, 251, 251); text-decoration-thickness: initial; text-decoration-style: initial; text-decoration-color: initial; float: none; display: inline !important;&quot;&gt;If not meet&lt;/span&gt;" style="text;whiteSpace=wrap;html=1;" vertex="1" parent="1">
          <mxGeometry x="500" y="490" width="50" height="30" as="geometry" />
        </mxCell>
        <mxCell id="sKo5t8f6W25Y290dJ45e-50" value="Check if draw result pulled" style="rounded=1;whiteSpace=wrap;html=1;" vertex="1" parent="1">
          <mxGeometry x="310" y="550" width="120" height="40" as="geometry" />
        </mxCell>
        <UserObject label="&lt;span data-lucid-type=&quot;application/vnd.lucid.text&quot; data-lucid-content=&quot;{&amp;quot;t&amp;quot;:&amp;quot;Remain status  \&amp;quot;Pending Draw Result\&amp;quot;&amp;quot;,&amp;quot;m&amp;quot;:[{&amp;quot;s&amp;quot;:0,&amp;quot;n&amp;quot;:&amp;quot;fsp&amp;quot;,&amp;quot;v&amp;quot;:&amp;quot;ss_presetShapeStyle3_textStyle&amp;quot;,&amp;quot;e&amp;quot;:36},{&amp;quot;s&amp;quot;:0,&amp;quot;n&amp;quot;:&amp;quot;fsp2&amp;quot;,&amp;quot;v&amp;quot;:&amp;quot;ss_presetShapeStyle3_textStyle&amp;quot;,&amp;quot;e&amp;quot;:36},{&amp;quot;s&amp;quot;:0,&amp;quot;n&amp;quot;:&amp;quot;s&amp;quot;,&amp;quot;v&amp;quot;:20,&amp;quot;e&amp;quot;:36},{&amp;quot;s&amp;quot;:0,&amp;quot;n&amp;quot;:&amp;quot;fc&amp;quot;,&amp;quot;v&amp;quot;:&amp;quot;Bold&amp;quot;,&amp;quot;e&amp;quot;:36},{&amp;quot;s&amp;quot;:0,&amp;quot;n&amp;quot;:&amp;quot;f&amp;quot;,&amp;quot;v&amp;quot;:&amp;quot;Liberation Serif&amp;quot;,&amp;quot;e&amp;quot;:36},{&amp;quot;s&amp;quot;:0,&amp;quot;n&amp;quot;:&amp;quot;fid&amp;quot;,&amp;quot;v&amp;quot;:977,&amp;quot;e&amp;quot;:36},{&amp;quot;s&amp;quot;:0,&amp;quot;n&amp;quot;:&amp;quot;b&amp;quot;,&amp;quot;v&amp;quot;:true,&amp;quot;e&amp;quot;:36}]}&quot;&gt;&lt;span style=&quot;font-weight:bold;color:#000000;font-size:15px;&quot;&gt;Remain status  &quot;Pending Draw Result&quot;&lt;/span&gt;&lt;/span&gt;" link="&lt;span data-lucid-type=&quot;application/vnd.lucid.text&quot; data-lucid-content=&quot;{&amp;quot;t&amp;quot;:&amp;quot;Remain status  \&amp;quot;Pending Draw Result\&amp;quot;&amp;quot;,&amp;quot;m&amp;quot;:[{&amp;quot;s&amp;quot;:0,&amp;quot;n&amp;quot;:&amp;quot;fsp&amp;quot;,&amp;quot;v&amp;quot;:&amp;quot;ss_presetShapeStyle3_textStyle&amp;quot;,&amp;quot;e&amp;quot;:36},{&amp;quot;s&amp;quot;:0,&amp;quot;n&amp;quot;:&amp;quot;fsp2&amp;quot;,&amp;quot;v&amp;quot;:&amp;quot;ss_presetShapeStyle3_textStyle&amp;quot;,&amp;quot;e&amp;quot;:36},{&amp;quot;s&amp;quot;:0,&amp;quot;n&amp;quot;:&amp;quot;s&amp;quot;,&amp;quot;v&amp;quot;:20,&amp;quot;e&amp;quot;:36},{&amp;quot;s&amp;quot;:0,&amp;quot;n&amp;quot;:&amp;quot;fc&amp;quot;,&amp;quot;v&amp;quot;:&amp;quot;Bold&amp;quot;,&amp;quot;e&amp;quot;:36},{&amp;quot;s&amp;quot;:0,&amp;quot;n&amp;quot;:&amp;quot;f&amp;quot;,&amp;quot;v&amp;quot;:&amp;quot;Liberation Serif&amp;quot;,&amp;quot;e&amp;quot;:36},{&amp;quot;s&amp;quot;:0,&amp;quot;n&amp;quot;:&amp;quot;fid&amp;quot;,&amp;quot;v&amp;quot;:977,&amp;quot;e&amp;quot;:36},{&amp;quot;s&amp;quot;:0,&amp;quot;n&amp;quot;:&amp;quot;b&amp;quot;,&amp;quot;v&amp;quot;:true,&amp;quot;e&amp;quot;:36}]}&quot;&gt;&lt;span style=&quot;font-weight:bold;color:#000000;font-size:15px;&quot;&gt;Remain status  &quot;Pending Draw Result&quot;&lt;/span&gt;&lt;/span&gt;" id="sKo5t8f6W25Y290dJ45e-51">
          <mxCell style="text;whiteSpace=wrap;html=1;" vertex="1" parent="1">
            <mxGeometry x="580" y="570" width="310" height="40" as="geometry" />
          </mxCell>
        </UserObject>
        <UserObject label="&lt;span data-lucid-type=&quot;application/vnd.lucid.text&quot; data-lucid-content=&quot;{&amp;quot;t&amp;quot;:&amp;quot;Update draw status \&amp;quot;Pending Draw Result Approval\&amp;quot;&amp;quot;,&amp;quot;m&amp;quot;:[{&amp;quot;s&amp;quot;:0,&amp;quot;n&amp;quot;:&amp;quot;s&amp;quot;,&amp;quot;v&amp;quot;:20,&amp;quot;e&amp;quot;:49},{&amp;quot;s&amp;quot;:0,&amp;quot;n&amp;quot;:&amp;quot;fsp&amp;quot;,&amp;quot;v&amp;quot;:&amp;quot;ss_presetShapeStyle1_textStyle&amp;quot;,&amp;quot;e&amp;quot;:49},{&amp;quot;s&amp;quot;:0,&amp;quot;n&amp;quot;:&amp;quot;fsp2&amp;quot;,&amp;quot;v&amp;quot;:&amp;quot;ss_presetShapeStyle1_textStyle&amp;quot;,&amp;quot;e&amp;quot;:49},{&amp;quot;s&amp;quot;:0,&amp;quot;n&amp;quot;:&amp;quot;fc&amp;quot;,&amp;quot;v&amp;quot;:&amp;quot;Bold&amp;quot;,&amp;quot;e&amp;quot;:49},{&amp;quot;s&amp;quot;:0,&amp;quot;n&amp;quot;:&amp;quot;f&amp;quot;,&amp;quot;v&amp;quot;:&amp;quot;Liberation Serif&amp;quot;,&amp;quot;e&amp;quot;:49},{&amp;quot;s&amp;quot;:0,&amp;quot;n&amp;quot;:&amp;quot;fid&amp;quot;,&amp;quot;v&amp;quot;:977,&amp;quot;e&amp;quot;:49},{&amp;quot;s&amp;quot;:0,&amp;quot;n&amp;quot;:&amp;quot;b&amp;quot;,&amp;quot;v&amp;quot;:true,&amp;quot;e&amp;quot;:49}]}&quot;&gt;&lt;span style=&quot;font-weight:bold;color:#000000;font-size:15px;&quot;&gt;Update draw status &quot;Pending Draw Result Approval&quot;&lt;/span&gt;&lt;/span&gt;" link="&lt;span data-lucid-type=&quot;application/vnd.lucid.text&quot; data-lucid-content=&quot;{&amp;quot;t&amp;quot;:&amp;quot;Update draw status \&amp;quot;Pending Draw Result Approval\&amp;quot;&amp;quot;,&amp;quot;m&amp;quot;:[{&amp;quot;s&amp;quot;:0,&amp;quot;n&amp;quot;:&amp;quot;s&amp;quot;,&amp;quot;v&amp;quot;:20,&amp;quot;e&amp;quot;:49},{&amp;quot;s&amp;quot;:0,&amp;quot;n&amp;quot;:&amp;quot;fsp&amp;quot;,&amp;quot;v&amp;quot;:&amp;quot;ss_presetShapeStyle1_textStyle&amp;quot;,&amp;quot;e&amp;quot;:49},{&amp;quot;s&amp;quot;:0,&amp;quot;n&amp;quot;:&amp;quot;fsp2&amp;quot;,&amp;quot;v&amp;quot;:&amp;quot;ss_presetShapeStyle1_textStyle&amp;quot;,&amp;quot;e&amp;quot;:49},{&amp;quot;s&amp;quot;:0,&amp;quot;n&amp;quot;:&amp;quot;fc&amp;quot;,&amp;quot;v&amp;quot;:&amp;quot;Bold&amp;quot;,&amp;quot;e&amp;quot;:49},{&amp;quot;s&amp;quot;:0,&amp;quot;n&amp;quot;:&amp;quot;f&amp;quot;,&amp;quot;v&amp;quot;:&amp;quot;Liberation Serif&amp;quot;,&amp;quot;e&amp;quot;:49},{&amp;quot;s&amp;quot;:0,&amp;quot;n&amp;quot;:&amp;quot;fid&amp;quot;,&amp;quot;v&amp;quot;:977,&amp;quot;e&amp;quot;:49},{&amp;quot;s&amp;quot;:0,&amp;quot;n&amp;quot;:&amp;quot;b&amp;quot;,&amp;quot;v&amp;quot;:true,&amp;quot;e&amp;quot;:49}]}&quot;&gt;&lt;span style=&quot;font-weight:bold;color:#000000;font-size:15px;&quot;&gt;Update draw status &quot;Pending Draw Result Approval&quot;&lt;/span&gt;&lt;/span&gt;" id="sKo5t8f6W25Y290dJ45e-53">
          <mxCell style="text;whiteSpace=wrap;html=1;" vertex="1" parent="1">
            <mxGeometry x="130" y="670" width="410" height="40" as="geometry" />
          </mxCell>
        </UserObject>
      </root>
    </mxGraphModel>
  </diagram>
</mxfile>
